HIERARCHY
ROOT Hips
{
  OFFSET 51.446 97.0914 32.196
  CHANNELS 6 Xposition Yposition Zposition Zrotation Xrotation Yrotation
  JOINT spine
  {
    OFFSET 0 7.96568 0.458067
    CHANNELS 3 Zrotation Xrotation Yrotation
    JOINT spine1
    {
      OFFSET 0 10.2431 0
      CHANNELS 3 Zrotation Xrotation Yrotation
      JOINT spine2
      {
        OFFSET 0 9.81475 0
        CHANNELS 3 Zrotation Xrotation Yrotation
        JOINT Neck
        {
          OFFSET 0 25.1986 1.20138
          CHANNELS 3 Zrotation Xrotation Yrotation
          JOINT Head
          {
            OFFSET 0 7.61315 0
            CHANNELS 3 Zrotation Xrotation Yrotation
            End Site
            {
              OFFSET 0 18.4281 -6.07733
            }
          }
        }
        JOINT RightShoulder
        {
          OFFSET -4.1327 10.5992 -0.575451
          CHANNELS 3 Zrotation Xrotation Yrotation
          JOINT RightArm
          {
            OFFSET 0 13.9018 0
            CHANNELS 3 Zrotation Xrotation Yrotation
            JOINT RightArmRoll
            {
              OFFSET 0 7.01789 0
              CHANNELS 3 Zrotation Xrotation Yrotation
              JOINT RightForeArm
              {
                OFFSET 0 20.4406 0
                CHANNELS 3 Zrotation Xrotation Yrotation
                JOINT RightForeArmRoll
                {
                  OFFSET 0 7.87515 0
                  CHANNELS 3 Zrotation Xrotation Yrotation
                  JOINT RightHand
                  {
                    OFFSET 0 15.8037 0
                    CHANNELS 3 Zrotation Xrotation Yrotation
                    End Site
                    {
                      OFFSET 0 0 0
                    }
                  }
                }
              }
            }
          }
        }
        JOINT LeftShoulder
        {
          OFFSET 4.1327 10.5992 -0.575451
          CHANNELS 3 Zrotation Xrotation Yrotation
          JOINT LeftArm
          {
            OFFSET 0 13.9018 0
            CHANNELS 3 Zrotation Xrotation Yrotation
            JOINT LeftArmRoll
            {
              OFFSET 0 7.01789 0
              CHANNELS 3 Zrotation Xrotation Yrotation
              JOINT LeftForeArm
              {
                OFFSET 0 20.4406 0
                CHANNELS 3 Zrotation Xrotation Yrotation
                JOINT LeftForeArmRoll
                {
                  OFFSET 0 7.87515 0
                  CHANNELS 3 Zrotation Xrotation Yrotation
                  JOINT LeftHand
                  {
                    OFFSET 0 15.8037 0
                    CHANNELS 3 Zrotation Xrotation Yrotation
                    End Site
                    {
                      OFFSET 0 0 0
                    }
                  }
                }
              }
            }
          }
        }
      }
    }
  }
  JOINT RightUpLeg
  {
    OFFSET -7.06048 -1.2947 -1.0861
    CHANNELS 3 Zrotation Xrotation Yrotation
    JOINT RightUpLegRoll
    {
      OFFSET 0 18.5308 0
      CHANNELS 3 Zrotation Xrotation Yrotation
      JOINT RightLeg
      {
        OFFSET 0 -22.9476 0
        CHANNELS 3 Zrotation Xrotation Yrotation
        JOINT RightLegRoll
        {
          OFFSET 0 23.0226 0
          CHANNELS 3 Zrotation Xrotation Yrotation
          JOINT RightFoot
          {
            OFFSET 0 19.1625 0
            CHANNELS 3 Zrotation Xrotation Yrotation
            JOINT RightToeBase
            {
              OFFSET 0 16.0188 0
              CHANNELS 3 Zrotation Xrotation Yrotation
              End Site
              {
                OFFSET 0.00678979 7.75781 -0.894207
              }
            }
          }
        }
      }
    }
  }
  JOINT LeftUpLeg
  {
    OFFSET 7.06048 -1.2947 -1.0861
    CHANNELS 3 Zrotation Xrotation Yrotation
    JOINT LeftUpLegRoll
    {
      OFFSET 0 18.5309 0
      CHANNELS 3 Zrotation Xrotation Yrotation
      JOINT LeftLeg
      {
        OFFSET 0 22.9475 0
        CHANNELS 3 Zrotation Xrotation Yrotation
        JOINT LeftLegRoll
        {
          OFFSET 0 23.2355 0
          CHANNELS 3 Zrotation Xrotation Yrotation
          JOINT LeftFoot
          {
            OFFSET 0 18.9496 0
            CHANNELS 3 Zrotation Xrotation Yrotation
            JOINT LeftToeBase
            {
              OFFSET 0 16.0188 0
              CHANNELS 3 Zrotation Xrotation Yrotation
              End Site
              {
                OFFSET -0.0304289 7.75782 -0.894207
              }
            }
          }
        }
      }
    }
  }
}
MOTION
Frames: 14
Frame Time: 0.00208333
52.9815 54.2872 -2.65312 0.154796 -11.9362 0.0328622 0.271973 4.7882 -0.656949 0.602789 13.5888 -1.3745 0.622501 15.2337 -1.38926 -14.172 -18.6171 -1.23126 13.7105 25.8361 -2.93006 51.6753 -4.89818 -2.54458 125.739 35.7891 -28.6777 -6.36111e-015 1.59028e-015 3.18055e-015 15.674 58.498 -12.0507 -3.50018e-006 -8.24113e-006 -3.00001 8.0292 -4.9514 0.697643 -62.2594 -11.608 7.18242 -111.701 37.0012 35.7856 -1.51954e-005 -6.31196e-007 -1.4487e-006 -25.2341 67.4237 21.7905 -1.26551e-006 -1.24601e-005 3 -8.02907 -4.95125 -0.697617 132.732 73.8531 50.1838 -180 7.01369e-015 178.32 -22.9757 75.921 25.7873 6.54413e-007 -3.04859e-006 2.61516 -20.3394 69.758 21.135 8.25989 28.9375 -1.81042 -127.064 73.1009 -55.5882 4.5067e-006 -1.99009e-005 -1.45031 149.716 -82.7545 149.178 2.97929e-007 -3.52777e-006 -2.19673 15.9544 62.5527 -15.8303 -8.55096 31.2213 3.67401 
52.9736 54.2933 -2.67472 0.154678 -11.9296 0.0320608 0.272474 4.78823 -0.656991 0.603803 13.5881 -1.37514 0.623528 15.2329 -1.38991 -14.1924 -18.5989 -1.23065 13.7265 25.833 -2.93355 51.6675 -4.89816 -2.54401 125.745 35.7839 -28.6825 -2.38542e-015 6.36111e-015 -0 15.6739 58.506 -12.0529 -3.50018e-006 -8.24113e-006 -3.00001 8.0292 -4.9514 0.697643 -62.2677 -11.6088 7.1828 -111.693 36.9965 35.7851 -1.51954e-005 -6.31196e-007 -1.4487e-006 -25.2389 67.4381 21.7992 -1.26551e-006 -1.24601e-005 3 -8.02907 -4.95125 -0.697617 132.724 73.8624 50.191 -180 7.01369e-015 178.32 -22.9797 75.9204 25.7915 6.54413e-007 -3.04859e-006 2.61537 -20.3394 69.7573 21.1348 8.25961 28.9341 -1.80821 -127.048 73.1079 -55.6028 4.5067e-006 -1.99009e-005 -1.45031 149.717 -82.7538 149.178 2.97929e-007 -3.52777e-006 -2.19673 15.9504 62.5502 -15.8293 -8.55117 31.2236 3.6748 
52.9752 54.2889 -2.67164 0.1546 -11.9232 0.0312378 0.272994 4.78828 -0.657035 0.604867 13.5874 -1.37582 0.624605 15.2322 -1.3906 -14.2132 -18.5809 -1.23004 13.7429 25.8299 -2.93707 51.6594 -4.89818 -2.54344 125.752 35.7787 -28.6873 1.03368e-014 4.77083e-015 3.18055e-015 15.6736 58.5136 -12.0549 -3.50018e-006 -8.24113e-006 -3.00001 8.0292 -4.9514 0.697643 -62.2762 -11.6099 7.1833 -111.684 36.9918 35.7849 -1.51954e-005 -6.31196e-007 -1.4487e-006 -25.2438 67.4527 21.8081 -1.26551e-006 -1.24601e-005 3 -8.02907 -4.95125 -0.697617 132.717 73.8715 50.1978 -180 7.01369e-015 178.32 -22.9838 75.9197 25.7959 6.54413e-007 -3.04859e-006 2.61559 -20.3395 69.7566 21.1349 8.25932 28.9305 -1.80591 -127.032 73.1145 -55.6179 4.5067e-006 -1.99009e-005 -1.45031 149.72 -82.7529 149.181 2.97929e-007 -3.52777e-006 -2.19673 15.9464 62.5477 -15.8282 -8.55144 31.2265 3.67589 
52.9765 54.2796 -2.63896 0.154551 -11.9169 0.0303997 0.273527 4.78834 -0.657079 0.605964 13.5866 -1.37652 0.625715 15.2315 -1.39132 -14.2343 -18.563 -1.22944 13.7596 25.8268 -2.94061 51.6511 -4.89823 -2.54288 125.759 35.7735 -28.6922 1.27222e-014 1.11319e-014 3.18055e-015 15.6732 58.521 -12.0568 -3.50018e-006 -8.24113e-006 -3.00001 8.0292 -4.9514 0.697643 -62.2848 -11.6111 7.18389 -111.676 36.9869 35.7848 -1.51954e-005 -6.31196e-007 -1.4487e-006 -25.2489 67.4674 21.8172 -1.26551e-006 -1.24601e-005 3 -8.02907 -4.95125 -0.697617 132.71 73.8806 50.2044 -180 7.01369e-015 178.32 -22.988 75.919 25.8003 6.54413e-007 -3.04859e-006 2.61581 -20.3397 69.7561 21.1351 8.25902 28.9267 -1.80357 -127.016 73.1211 -55.6332 4.5067e-006 -1.99009e-005 -1.45031 149.724 -82.7519 149.184 2.97929e-007 -3.52777e-006 -2.19673 15.9424 62.5452 -15.8272 -8.55175 31.2298 3.67719 
52.9763 54.2846 -2.65137 0.154517 -11.9106 0.029553 0.274067 4.7884 -0.657125 0.60708 13.5859 -1.37724 0.626846 15.2308 -1.39206 -14.2555 -18.5452 -1.22883 13.7765 25.8237 -2.94417 51.6427 -4.8983 -2.54232 125.766 35.7683 -28.6971 3.02153e-014 1.11319e-014 9.54166e-015 15.6728 58.5282 -12.0587 -3.50018e-006 -8.24113e-006 -3.00001 8.0292 -4.9514 0.697643 -62.2936 -11.6124 7.18453 -111.667 36.982 35.7847 -1.51954e-005 -6.31196e-007 -1.4487e-006 -25.2542 67.4822 21.8263 -1.26551e-006 -1.24601e-005 3 -8.02907 -4.95125 -0.697617 132.703 73.8897 50.211 -180 7.01369e-015 178.32 -22.9923 75.9182 25.8048 6.54413e-007 -3.04859e-006 2.61604 -20.34 69.7556 21.1354 8.25872 28.9229 -1.8012 -126.999 73.1275 -55.6487 4.5067e-006 -1.99009e-005 -1.45031 149.728 -82.7508 149.188 2.97929e-007 -3.52777e-006 -2.19673 15.9384 62.5427 -15.8262 -8.55208 31.2334 3.67861 
52.9699 54.2797 -2.65957 0.154489 -11.9043 0.0287042 0.274609 4.78847 -0.65717 0.608201 13.5852 -1.37796 0.627981 15.2301 -1.39279 -14.2768 -18.5274 -1.22822 13.7934 25.8207 -2.94773 51.6342 -4.89838 -2.54176 125.773 35.763 -28.702 -5.56597e-015 3.18055e-015 -0 15.6724 58.5353 -12.0605 -3.50018e-006 -8.24113e-006 -3.00001 8.0292 -4.9514 0.697643 -62.3023 -11.6138 7.18518 -111.659 36.9771 35.7846 -1.51954e-005 -6.31196e-007 -1.4487e-006 -25.2594 67.4971 21.8354 -1.26551e-006 -1.24601e-005 3 -8.02907 -4.95125 -0.697617 132.696 73.8987 50.2175 -180 7.01369e-015 178.32 -22.9965 75.9174 25.8092 6.54413e-007 -3.04859e-006 2.61626 -20.3403 69.7551 21.1357 8.25841 28.9191 -1.79882 -126.983 73.1339 -55.6643 4.5067e-006 -1.99009e-005 -1.45031 149.733 -82.7497 149.193 2.97929e-007 -3.52777e-006 -2.19673 15.9344 62.5402 -15.8252 -8.55242 31.2371 3.68006 
52.9716 54.2808 -2.65883 0.154452 -11.8981 0.0278597 0.275148 4.78854 -0.657216 0.609313 13.5845 -1.37868 0.629106 15.2293 -1.39353 -14.298 -18.5095 -1.22761 13.8102 25.8177 -2.95128 51.6258 -4.89844 -2.5412 125.779 35.7578 -28.7069 -7.15625e-015 6.36111e-015 -0 15.672 58.5426 -12.0624 -3.50018e-006 -8.24113e-006 -3.00001 8.0292 -4.9514 0.697643 -62.311 -11.6151 7.18581 -111.65 36.9722 35.7846 -1.51954e-005 -6.31196e-007 -1.4487e-006 -25.2647 67.5119 21.8446 -1.26551e-006 -1.24601e-005 3 -8.02907 -4.95125 -0.697617 132.689 73.9078 50.2241 -180 7.01369e-015 178.32 -23.0008 75.9166 25.8137 6.54413e-007 -3.04859e-006 2.61649 -20.3406 69.7546 21.1359 8.25811 28.9153 -1.79645 -126.967 73.1403 -55.6797 4.5067e-006 -1.99009e-005 -1.45031 149.737 -82.7486 149.197 2.97929e-007 -3.52777e-006 -2.19673 15.9304 62.5376 -15.8242 -8.55275 31.2406 3.68144 
52.9721 54.2948 -2.67523 0.154395 -11.8917 0.0270261 0.275677 4.78859 -0.65726 0.6104 13.5837 -1.37938 0.630207 15.2286 -1.39424 -14.319 -18.4916 -1.227 13.8269 25.8146 -2.95482 51.6176 -4.89848 -2.54064 125.786 35.7526 -28.7118 -9.54166e-015 -1.59028e-015 -0 15.6716 58.55 -12.0643 -3.50018e-006 -8.24113e-006 -3.00001 8.0292 -4.9514 0.697643 -62.3196 -11.6162 7.18637 -111.642 36.9674 35.7844 -1.51954e-005 -6.31196e-007 -1.4487e-006 -25.2698 67.5265 21.8536 -1.26551e-006 -1.24601e-005 3 -8.02907 -4.95125 -0.697617 132.682 73.9169 50.2308 -180 7.01369e-015 178.32 -23.005 75.9159 25.8181 6.54413e-007 -3.04859e-006 2.61671 -20.3408 69.7541 21.1361 8.25781 28.9116 -1.79412 -126.95 73.1468 -55.6951 4.5067e-006 -1.99009e-005 -1.45031 149.741 -82.7476 149.2 2.97929e-007 -3.52777e-006 -2.19673 15.9264 62.5351 -15.8232 -8.55305 31.2438 3.68268 
52.9701 54.2892 -2.67118 0.154307 -11.8852 0.0262098 0.276191 4.78864 -0.657303 0.611449 13.583 -1.38004 0.631269 15.2279 -1.39492 -14.3397 -18.4735 -1.2264 13.8432 25.8114 -2.95832 51.6096 -4.89849 -2.54008 125.793 35.7474 -28.7166 3.97569e-015 7.95139e-015 -0 15.6714 58.5577 -12.0664 -3.50018e-006 -8.24113e-006 -3.00001 8.0292 -4.9514 0.697643 -62.328 -11.6172 7.18683 -111.634 36.9627 35.7841 -1.51954e-005 -6.31196e-007 -1.4487e-006 -25.2747 67.5411 21.8625 -1.26551e-006 -1.24601e-005 3 -8.02907 -4.95125 -0.697617 132.675 73.9261 50.2378 -180 7.01369e-015 178.32 -23.0091 75.9153 25.8224 6.54413e-007 -3.04859e-006 2.61692 -20.3409 69.7534 21.1361 8.25752 28.9081 -1.79185 -126.934 73.1536 -55.7101 4.5067e-006 -1.99009e-005 -1.45031 149.743 -82.7468 149.202 2.97929e-007 -3.52777e-006 -2.19673 15.9224 62.5326 -15.8221 -8.5533 31.2466 3.68368 
52.9694 54.2817 -2.66434 0.154174 -11.8786 0.0254174 0.276685 4.78866 -0.657345 0.612444 13.5823 -1.38067 0.632276 15.2271 -1.39555 -14.3599 -18.4553 -1.2258 13.859 25.8082 -2.9618 51.602 -4.89846 -2.5395 125.799 35.7423 -28.7214 -1.27222e-014 6.36111e-015 -6.36111e-015 15.6713 58.5658 -12.0687 -3.50018e-006 -8.24113e-006 -3.00001 8.0292 -4.9514 0.697643 -62.3362 -11.618 7.18716 -111.625 36.9582 35.7836 -1.51954e-005 -6.31196e-007 -1.4487e-006 -25.2794 67.5554 21.8713 -1.26551e-006 -1.24601e-005 3 -8.02907 -4.95125 -0.697617 132.667 73.9354 50.2452 -180 7.01369e-015 178.32 -23.013 75.9147 25.8266 6.54413e-007 -3.04859e-006 2.61713 -20.3408 69.7526 21.1359 8.25725 28.9047 -1.78967 -126.918 73.1606 -55.7246 4.5067e-006 -1.99009e-005 -1.45031 149.743 -82.7462 149.202 2.97929e-007 -3.52777e-006 -2.19673 15.9184 62.5301 -15.8211 -8.55349 31.2486 3.68435 
52.9703 54.2876 -2.67219 0.153985 -11.8719 0.0246553 0.277153 4.78867 -0.657384 0.613371 13.5815 -1.38123 0.633215 15.2264 -1.39613 -14.3796 -18.4369 -1.2252 13.8743 25.8049 -2.96523 51.5948 -4.89837 -2.53892 125.805 35.7371 -28.726 -1.19271e-014 -3.18055e-015 3.18055e-015 15.6714 58.5745 -12.0711 -3.50018e-006 -8.24113e-006 -3.00001 8.0292 -4.9514 0.697643 -62.3441 -11.6185 7.18732 -111.618 36.9538 35.7828 -1.51954e-005 -6.31196e-007 -1.4487e-006 -25.2839 67.5695 21.8798 -1.26551e-006 -1.24601e-005 3 -8.02907 -4.95125 -0.697617 132.659 73.9448 50.2529 -180 7.01369e-015 178.32 -23.0168 75.9144 25.8306 6.54413e-007 -3.04859e-006 2.61733 -20.3406 69.7516 21.1354 8.257 28.9015 -1.78758 -126.903 73.1679 -55.7386 4.5067e-006 -1.99009e-005 -1.45031 149.742 -82.7459 149.2 2.97929e-007 -3.52777e-006 -2.19673 15.9144 62.5276 -15.8201 -8.55359 31.2498 3.68461 
52.9792 54.2839 -2.66092 0.153729 -11.8649 0.0239301 0.277589 4.78864 -0.65742 0.614216 13.5808 -1.38173 0.63407 15.2256 -1.39665 -14.3985 -18.4183 -1.2246 13.8889 25.8015 -2.9686 51.5882 -4.89821 -2.53833 125.811 35.732 -28.7306 8.74653e-015 3.18055e-015 3.18055e-015 15.6717 58.5837 -12.0739 -3.50018e-006 -8.24113e-006 -3.00001 8.0292 -4.9514 0.697643 -62.3517 -11.6186 7.18726 -111.61 36.9496 35.7818 -1.51954e-005 -6.31196e-007 -1.4487e-006 -25.2879 67.5832 21.888 -1.26551e-006 -1.24601e-005 3 -8.02907 -4.95125 -0.697617 132.651 73.9544 50.2612 -180 7.01369e-015 178.32 -23.0204 75.9141 25.8345 6.54413e-007 -3.04859e-006 2.61752 -20.3401 69.7503 21.1345 8.25678 28.8987 -1.78563 -126.887 73.1757 -55.752 4.5067e-006 -1.99009e-005 -1.45031 149.737 -82.746 149.195 2.97929e-007 -3.52777e-006 -2.19673 15.9103 62.5252 -15.8191 -8.5536 31.2499 3.68435 
52.9744 54.28 -2.66179 0.153392 -11.8576 0.0232481 0.277988 4.78858 -0.657453 0.614965 13.58 -1.38216 0.634827 15.2249 -1.39708 -14.4167 -18.3993 -1.22401 13.9027 25.798 -2.9719 51.5823 -4.89797 -2.53773 125.816 35.727 -28.735 9.54166e-015 4.77083e-015 6.36111e-015 15.6723 58.5937 -12.077 -3.50018e-006 -8.24113e-006 -3.00001 8.0292 -4.9514 0.697643 -62.3588 -11.6183 7.18695 -111.603 36.9458 35.7804 -1.51954e-005 -6.31196e-007 -1.4487e-006 -25.2915 67.5965 21.8958 -1.26551e-006 -1.24601e-005 3 -8.02907 -4.95125 -0.697617 132.643 73.9643 50.27 -180 7.01369e-015 178.32 -23.0237 75.9141 25.8381 6.54413e-007 -3.04859e-006 2.61769 -20.3393 69.7488 21.1333 8.25658 28.8962 -1.78382 -126.873 73.184 -55.7645 4.5067e-006 -1.99009e-005 -1.45031 149.73 -82.7465 149.187 2.97929e-007 -3.52777e-006 -2.19673 15.9062 62.5228 -15.818 -8.55349 31.2487 3.6835 
52.9695 54.2814 -2.66725 0.152963 -11.8501 0.022616 0.278345 4.78849 -0.657482 0.615601 13.5792 -1.38249 0.63547 15.2241 -1.39742 -14.4339 -18.38 -1.22343 13.9155 25.7943 -2.97513 51.5771 -4.89764 -2.53712 125.821 35.722 -28.7393 2.3059e-014 7.95139e-015 3.18055e-015 15.6732 58.6045 -12.0804 -3.50018e-006 -8.24113e-006 -3.00001 8.0292 -4.9514 0.697643 -62.3655 -11.6174 7.18636 -111.596 36.9422 35.7786 -1.51954e-005 -6.31196e-007 -1.4487e-006 -25.2946 67.6094 21.9033 -1.26551e-006 -1.24601e-005 3 -8.02907 -4.95125 -0.697617 132.634 73.9744 50.2796 -180 7.01369e-015 178.32 -23.0268 75.9143 25.8415 6.54413e-007 -3.04859e-006 2.61785 -20.3382 69.7469 21.1315 8.25641 28.8941 -1.78218 -126.858 73.1928 -55.7761 4.5067e-006 -1.99009e-005 -1.45031 149.719 -82.7475 149.175 2.97929e-007 -3.52777e-006 -2.19673 15.902 62.5204 -15.817 -8.55325 31.2462 3.68195 
